<?xml version="1.0" encoding="UTF-8"?>
<svg id="Layer_1" data-name="Layer 1" xmlns="http://www.w3.org/2000/svg" viewBox="0 0 1000 1000">
  <defs>
    <style>
      .cls-1 {
        fill: #2b70a7;
      }

      .cls-2 {
        fill: #747c80;
      }

      .cls-3 {
        fill: #fb8d36;
      }

      .cls-4 {
        fill: #b01741;
      }

      .cls-5 {
        fill: #fbb342;
      }

      .cls-6 {
        fill: #b65483;
      }

      .cls-7 {
        fill: #8e9b4c;
      }

      .cls-8 {
        fill: #80588f;
      }

      .cls-9 {
        fill: #e64444;
      }

      .cls-10 {
        fill: #b65382;
      }

      .cls-11 {
        fill: #298057;
      }

      .cls-12 {
        fill: #a3d2f2;
      }
    </style>
  </defs>
  <g>
    <g>
      <path class="cls-11" d="M283.64,165.83l63.52,177.81c-53.19,19.52-97.79,57.17-125.96,106.33l-162.95-95.21c48.19-86.96,130.47-157.58,225.39-188.93Z"/>
      <path class="cls-1" d="M576.52,165.98l-64.78,177.17c-53.22-19.17-111.48-19-164.58.49l-63.52-177.81c34.89-11.52,69.36-23.53,108.64-25.4,24.99-1.19,50.72-.9,75.79.25,39.16,1.8,73.54,13.98,108.46,25.29Z"/>
      <path class="cls-8" d="M763.07,294.51l-34.6,85.62c-2.59,6.42-2.67,14.2-3.43,20.18l-85.96,49.71c-28.41-49.61-73.55-87.49-127.34-106.87l64.78-177.17c64.52,20.9,122.57,60.49,170.14,110.9,5.85,6.2,9.46,13.63,16.41,17.63Z"/>
    </g>
    <g>
      <path class="cls-7" d="M221.2,449.98c-28.15,49.13-38.09,106.62-28.07,162.35l-185.97,31.24c-1.55-11.72-6.42-23.99-6.77-37.61-2.68-106.44,7.4-160.12,57.85-251.19l162.95,95.21Z"/>
      <path class="cls-10" d="M844.66,449.87c15.64,63.64,16.77,92.09,15.05,157.53-.34,12.82-4.96,24.83-6.58,36.16l-186.01-31.19c10.03-55.73.11-113.22-28.04-162.35l85.96-49.71c-.7,5.57,5.95,12.6,4.78,19.01-1.81,9.89-7.33,18.85-10.97,28.62-9.98,26.75,2.36,55.5,28,66.4,25.08,10.67,54.38-.03,66.86-25.51,12.27-25.06,4.66-29.11,30.95-38.97Z"/>
    </g>
  </g>
  <g>
    <path class="cls-12" d="M956.42,193.21l-92.47,220.83c-5.67,13.53-10.76,25.28-19.29,35.83-26.29,9.86-18.68,13.91-30.95,38.97-12.48,25.48-41.77,36.18-66.86,25.51-25.64-10.9-37.98-39.66-28-66.4,3.65-9.77,9.17-18.73,10.97-28.62,1.17-6.41-5.49-13.44-4.78-19.01.75-5.98.83-13.76,3.43-20.18l34.6-85.62,64.65-154.34,128.7,53.03ZM783.44,472.93l14.31-34.42c6.98-16.79,20.53-5.12,28.11-23.57l51.62-125.7-63.2-26.01-52.53,125.88c-7.01,16.81,10.04,19.99,3.51,35.84l-14.56,35.34c-3.86,9.37,1.01,19.31,8.51,22.54,9.68,4.18,19.94.43,24.23-9.9Z"/>
    <rect class="cls-1" x="869.45" y="45.71" width="71.7" height="175.31" transform="translate(437.1 919.58) rotate(-67.61)"/>
    <path class="cls-2" d="M967.69,120.3l-96.24-39.66c6.13-16.37,12.36-34.91,21.62-51.9,14.4-26.4,46.47-33.91,70.76-20.2,25.1,14.17,33.07,43.58,20.72,70.56-6.54,14.28-12.46,28.54-16.86,41.19Z"/>
    <path class="cls-6" d="M783.44,472.93c-4.29,10.33-14.55,14.08-24.23,9.9-7.5-3.24-12.37-13.18-8.51-22.54l14.56-35.34c6.53-15.85-10.52-19.03-3.51-35.84l52.53-125.88,63.2,26.01-51.62,125.7c-7.58,18.45-21.13,6.78-28.11,23.57l-14.31,34.42Z"/>
  </g>
  <g>
    <path class="cls-3" d="M430.14,810.5v189.29c-12.51,0-24.7.76-38.53-.63-87.47-8.79-174.24-42.27-238.76-100.74l122.48-144.28c43.37,36.4,98.19,56.36,154.82,56.36Z"/>
    <path class="cls-4" d="M853.13,643.56c-11.65,81.47-51.48,158.68-107.88,219.39-8.34,8.98-14.33,17.07-23.82,23.94l-16.05,11.63-114.17-136.9c-2.67-3.2-4.8-5.43-4.07-9.35,41.94-36.07,70.19-85.47,79.99-139.91l186.01,31.19Z"/>
    <path class="cls-9" d="M705.37,898.52c-88.73,64.3-150.34,101.28-275.23,101.27v-189.29c57.61,0,113.31-20.66,156.99-58.22-.72,3.92,1.41,6.15,4.07,9.35l114.17,136.9Z"/>
    <path class="cls-5" d="M193.14,612.33c9.97,55.43,39.05,105.61,82.19,141.81l-122.48,144.28c-14.62-13.25-29.6-24.5-43.43-40.59-52.42-61.03-91.78-134.92-102.26-214.26l185.97-31.24Z"/>
  </g>
</svg>